HIERARCHY
ROOT hip
{
	OFFSET 0.00000 0.00000 0.00000
	CHANNELS 6 Xposition Yposition Zposition Zrotation Yrotation Xrotation 
	JOINT lhipjoint
	{
		OFFSET 0 0 0
		CHANNELS 3 Zrotation Yrotation Xrotation
		JOINT lfemur
		{
			OFFSET 1.77779 -1.88989 0.48267
			CHANNELS 3 Zrotation Yrotation Xrotation
			JOINT ltibia
			{
				OFFSET 2.53442 -6.96327 0.00000
				CHANNELS 3 Zrotation Yrotation Xrotation
				JOINT lfoot
				{
					OFFSET 2.71068 -7.44755 0.00000
					CHANNELS 3 Zrotation Yrotation Xrotation
					JOINT ltoes
					{
						OFFSET 0.17992 -0.49431 2.22524
						CHANNELS 3 Zrotation Yrotation Xrotation
						End Site
						{
							OFFSET 0.00000 -0.00000 1.14687
						}
					}
				}
			}
		}
	}
	JOINT rhipjoint
	{
		OFFSET 0 0 0
		CHANNELS 3 Zrotation Yrotation Xrotation
		JOINT rfemur
		{
			OFFSET -1.58469 -1.88989 0.48267
			CHANNELS 3 Zrotation Yrotation Xrotation
			JOINT rtibia
			{
				OFFSET -2.60386 -7.15404 0.00000
				CHANNELS 3 Zrotation Yrotation Xrotation
				JOINT rfoot
				{
					OFFSET -2.73334 -7.50979 0.00000
					CHANNELS 3 Zrotation Yrotation Xrotation
					JOINT rtoes
					{
						OFFSET -0.25618 -0.70384 2.21822
						CHANNELS 3 Zrotation Yrotation Xrotation
						End Site
						{
							OFFSET -0.00000 -0.00000 1.16381
						}
					}
				}
			}
		}
	}
	JOINT lowerback
	{
		OFFSET 0 0 0
		CHANNELS 3 Zrotation Yrotation Xrotation
		JOINT upperback
		{
			OFFSET 0.03410 2.01612 -0.22230
			CHANNELS 3 Zrotation Yrotation Xrotation
			JOINT thorax
			{
				OFFSET 0.03465 2.03012 0.00937
				CHANNELS 3 Zrotation Yrotation Xrotation
				JOINT lowerneck
				{
					OFFSET 0 0 0
					CHANNELS 3 Zrotation Yrotation Xrotation
					JOINT upperneck
					{
						OFFSET -0.00219 1.70459 0.20857
						CHANNELS 3 Zrotation Yrotation Xrotation
						JOINT head
						{
							OFFSET 0.02518 1.72339 -0.22179
							CHANNELS 3 Zrotation Yrotation Xrotation
							End Site
							{
								OFFSET 0.00282 1.74122 -0.09823
							}
						}
					}
				}
				JOINT lclavicle
				{
					OFFSET 0 0 0
					CHANNELS 3 Zrotation Yrotation Xrotation
					JOINT lhumerus
					{
						OFFSET 3.36358 1.00547 -0.37661
						CHANNELS 3 Zrotation Yrotation Xrotation
						JOINT lradius
						{
							OFFSET 5.06507 -0.00000 0.00000
							CHANNELS 3 Zrotation Yrotation Xrotation
							JOINT lwrist
							{
								OFFSET 3.60196 -0.00000 0.00000
								CHANNELS 3 Zrotation Yrotation Xrotation
								JOINT lhand
								{
									OFFSET 0 0 0
									CHANNELS 3 Zrotation Yrotation Xrotation
									JOINT lfingers
									{
										OFFSET 0.45035 -0.00000 0.00000
										CHANNELS 3 Zrotation Yrotation Xrotation
										End Site
										{
											OFFSET 0.36308 -0.00000 0.00000
										}
									}
								}
								JOINT lthumb
								{
									OFFSET 0 0 0
									CHANNELS 3 Zrotation Yrotation Xrotation
									End Site
									{
										OFFSET 0.36862 -0.00000 0.36862
									}
								}
							}
						}
					}
				}
				JOINT rclavicle
				{
					OFFSET 0 0 0
					CHANNELS 3 Zrotation Yrotation Xrotation
					JOINT rhumerus
					{
						OFFSET -3.50159 0.80383 -0.71526
						CHANNELS 3 Zrotation Yrotation Xrotation
						JOINT rradius
						{
							OFFSET -5.36394 -0.00000 0.00000
							CHANNELS 3 Zrotation Yrotation Xrotation
							JOINT rwrist
							{
								OFFSET -3.58035 -0.00000 0.00000
								CHANNELS 3 Zrotation Yrotation Xrotation
								JOINT rhand
								{
									OFFSET 0 0 0
									CHANNELS 3 Zrotation Yrotation Xrotation
									JOINT rfingers
									{
										OFFSET -0.66375 -0.00000 0.00000
										CHANNELS 3 Zrotation Yrotation Xrotation
										End Site
										{
											OFFSET -0.53513 -0.00000 0.00000
										}
									}
								}
								JOINT rthumb
								{
									OFFSET 0 0 0
									CHANNELS 3 Zrotation Yrotation Xrotation
									End Site
									{
										OFFSET -0.54330 -0.00000 0.54330
									}
								}
							}
						}
					}
				}
			}
		}
	}
}
MOTION
Frames: 9
Frame Time: 0.033333
0.3422 17.9195 -20.0404 -6.5596 -7.4794 0.1876 0.0000 -0.0000 0.0000 -9.7241 -10.2033 -27.8956 2.2140 9.2984 26.7332 -0.0233 3.6586 1.2858 0.0042 -0.4191 -1.1516 0.0000 -0.0000 0.0000 34.6506 4.9575 4.4051 -1.6827 -8.1713 23.2356 -1.3138 1.4993 -21.2327 -0.1842 -2.7640 7.6224 5.5143 1.8926 11.3721 2.6064 3.4073 0.0377 -0.9148 1.5395 -6.1886 -1.4557 -2.7906 -15.4128 0.1438 -3.5470 20.4991 -0.1420 -1.7610 9.0004 -0.0000 -0.0000 0.0000 -87.2162 6.4748 21.1666 12.6567 -20.7822 -2.3301 -0.0000 0.0000 -2.9588 31.1946 19.5723 11.4662 -7.1250 0.0000 -0.0000 2.9698 52.5252 0.5504 -0.0000 -0.0000 0.0000 86.0366 8.3650 19.7021 -18.0302 28.1959 -4.5635 0.0000 -0.0000 -3.0121 -21.2229 21.0836 -7.9525 7.1250 -0.0000 -0.0000 4.6958 -7.5728 4.0500
0.3435 17.8991 -19.8594 -6.6708 -7.5784 0.2650 0.0000 -0.0000 0.0000 -9.2164 -11.2953 -27.1883 1.7886 8.4110 23.9696 -0.0391 4.2075 0.9478 0.0001 -0.0584 -0.1604 0.0000 -0.0000 0.0000 34.7277 4.4986 5.2092 -1.5877 -7.9485 22.5578 -1.3095 1.4406 -21.2122 -0.1327 -2.3479 6.4681 5.6822 2.0255 11.2843 2.5465 3.5959 0.0210 -1.0970 1.6272 -6.1330 -1.3253 -2.8988 -15.2581 0.0568 -3.7104 20.3434 -0.2090 -1.8379 8.9152 0.0000 -0.0000 0.0000 -87.1078 6.5380 21.4120 12.3911 -20.3886 -2.2367 -0.0000 0.0000 -3.2264 30.9114 18.2858 10.6398 -7.1250 0.0000 -0.0000 2.8547 51.0221 0.4238 0.0000 -0.0000 0.0000 86.0814 8.5943 19.5663 -18.2563 28.4841 -4.6708 0.0000 -0.0000 -2.9685 -20.8784 21.3652 -7.9111 7.1250 -0.0000 -0.0000 4.9380 -7.3313 4.2839
0.3431 17.9079 -19.6771 -6.8150 -7.8060 0.3392 0.0000 -0.0000 0.0000 -8.8861 -11.8149 -26.3725 1.4268 7.5531 21.3647 -0.0534 4.3912 0.0817 0.0105 -0.6618 -1.8187 0.0000 -0.0000 0.0000 34.7940 4.0302 5.9653 -1.4987 -7.7329 21.9058 -1.2817 1.2044 -21.0444 -0.0655 -1.6508 4.5415 5.8532 2.1593 11.0825 2.5208 3.7660 0.2016 -1.2314 1.7175 -5.8053 -1.1888 -2.9816 -15.6413 -0.0115 -3.8364 20.2016 -0.2748 -1.8924 8.9329 -0.0000 -0.0000 0.0000 -87.0999 6.2113 21.3782 12.1042 -19.9607 -2.1377 -0.0000 0.0000 -3.2586 30.7152 17.6188 10.1944 -7.1250 0.0000 -0.0000 2.7400 50.2342 0.3537 -0.0000 -0.0000 0.0000 85.9769 9.1463 19.8095 -18.4439 28.7218 -4.7606 0.0000 -0.0000 -3.2214 -20.8314 21.3348 -7.8813 7.1250 -0.0000 -0.0000 4.9654 -7.3702 4.3040
0.3455 17.8957 -19.4926 -6.9400 -7.8937 0.4470 0.0000 -0.0000 0.0000 -8.4614 -12.6709 -25.6876 1.1296 6.7505 18.9783 -0.0728 4.8264 -1.0564 0.0762 -1.7812 -4.9014 0.0000 -0.0000 0.0000 34.8745 3.7184 6.7317 -1.4257 -7.5505 21.3568 -1.2586 0.8982 -20.9378 -0.0252 -1.0251 2.8179 6.0454 2.1872 10.9937 2.4956 3.8193 0.1871 -1.3683 1.7393 -5.7537 -1.0780 -3.0032 -15.7149 -0.0893 -3.8745 20.0874 -0.3241 -1.9104 8.9031 0.0000 0.0000 0.0000 -87.1712 6.4166 21.3221 12.0732 -19.9143 -2.1271 -0.0000 0.0000 -3.3510 30.8876 18.3151 10.6462 -7.1250 0.0000 -0.0000 2.8265 51.0509 0.4216 0.0000 0.0000 0.0000 85.9378 9.4264 20.1113 -18.6461 28.9766 -4.8582 0.0000 -0.0000 -3.3129 -21.0753 20.9339 -7.8398 7.1250 -0.0000 -0.0000 4.7774 -7.7518 4.1040
0.3516 17.8735 -19.3098 -6.9889 -7.8832 0.4664 0.0000 -0.0000 0.0000 -8.0932 -13.7000 -25.1629 0.9199 6.1107 17.1061 -0.0850 5.2228 -2.7509 0.0393 -1.2792 -3.5174 0.0000 -0.0000 0.0000 34.8587 3.4326 7.5606 -1.3610 -7.3843 20.8589 -1.2479 0.8107 -20.8727 -0.0147 -0.7834 2.1529 6.1806 2.2065 11.1268 2.4418 3.8735 0.1289 -1.5156 1.7563 -5.8745 -0.9660 -2.9779 -15.9401 -0.1254 -3.8596 20.2923 -0.3591 -1.8969 9.0114 0.0000 0.0000 0.0000 -87.2213 6.6708 21.0208 12.0526 -19.8835 -2.1202 -0.0000 0.0000 -3.0844 30.9947 19.1917 11.1710 -7.1250 0.0000 -0.0000 2.8163 52.0581 0.4897 0.0000 0.0000 0.0000 85.9421 9.5280 20.2550 -18.8870 29.2781 -4.9755 0.0000 -0.0000 -3.4376 -21.3068 21.0915 -7.9894 7.1250 -0.0000 -0.0000 4.6431 -7.5515 4.0062
0.3575 17.8588 -19.1215 -6.9969 -8.1778 0.3979 0.0000 -0.0000 0.0000 -7.7648 -14.7155 -24.3542 0.7472 5.5216 15.4024 -0.1041 6.0329 -4.2686 0.0551 -1.5152 -4.1675 0.0000 -0.0000 0.0000 34.7480 3.2722 8.3734 -1.3423 -7.3355 20.7131 -1.2506 0.9764 -20.8466 -0.0079 -0.5734 1.5757 6.2347 2.3513 11.2513 2.3812 4.0786 0.1396 -1.6458 1.8531 -5.9110 -0.8791 -2.9588 -16.0310 -0.1102 -3.8589 20.3739 -0.3706 -1.8873 9.0546 0.0000 0.0000 0.0000 -87.2428 6.7688 20.7914 11.8876 -19.6359 -2.0644 -0.0000 0.0000 -2.9248 31.0051 18.6412 10.8740 -7.1250 0.0000 -0.0000 2.9039 51.4403 0.4610 0.0000 0.0000 0.0000 85.9373 9.6220 20.2588 -19.0741 29.5107 -5.0673 0.0000 -0.0000 -3.5091 -21.5245 21.1986 -8.1166 7.1250 -0.0000 -0.0000 4.5139 -7.4057 3.9069
0.3670 17.8485 -18.9260 -6.8922 -8.3978 0.3929 0.0000 -0.0000 0.0000 -7.7677 -15.3610 -23.5893 0.6090 4.9951 13.8946 -0.1047 6.4732 -5.5746 0.0061 -0.5047 -1.3868 0.0000 -0.0000 0.0000 34.4699 3.0449 8.9108 -1.3707 -7.4096 20.9345 -1.2295 1.1603 -20.6141 -0.0098 -0.6404 1.7597 6.1415 2.3939 11.1365 2.3954 4.1189 0.0701 -1.5812 1.8744 -5.9250 -1.0921 -2.9487 -15.5144 -0.0408 -3.8091 20.1075 -0.2942 -1.8763 8.8745 -0.0000 -0.0000 0.0000 -87.4941 7.2000 20.4430 11.8044 -19.5107 -2.0365 -0.0000 0.0000 -2.6852 30.7297 17.8836 10.3453 -7.1250 0.0000 -0.0000 2.7214 50.5354 0.3715 -0.0000 -0.0000 0.0000 85.7777 9.5892 20.6318 -19.1726 29.6326 -5.1159 0.0000 -0.0000 -3.6456 -21.8081 20.9461 -8.1406 7.1250 -0.0000 -0.0000 4.3118 -7.6263 3.7122
0.3744 17.8230 -18.7368 -6.8463 -8.4402 0.4913 0.0000 -0.0000 0.0000 -7.9513 -15.2504 -23.4301 0.5254 4.6450 12.8988 -0.0075 6.1885 -8.6253 0.0162 0.8217 2.2584 0.0000 -0.0000 0.0000 34.3326 2.8339 9.2720 -1.4166 -7.5273 21.2872 -1.1687 0.9908 -20.1351 -0.0098 -0.6389 1.7557 6.1076 2.4274 11.1047 2.3663 4.1667 -0.1173 -1.6035 1.8898 -6.1033 -1.1353 -2.9296 -15.0684 0.0132 -3.7879 19.9304 -0.2569 -1.8665 8.7346 0.0000 -0.0000 0.0000 -87.6023 7.5557 20.0147 11.6005 -19.2028 -1.9689 -0.0000 0.0000 -2.0573 30.4883 17.0869 9.8146 -7.1250 0.0000 -0.0000 2.5764 49.5943 0.2920 0.0000 -0.0000 0.0000 85.7682 9.5070 20.5898 -19.1770 29.6380 -5.1181 0.0000 -0.0000 -3.5370 -21.9263 20.9755 -8.1995 7.1250 -0.0000 -0.0000 4.2391 -7.5770 3.6534
0.3822 17.7813 -18.5545 -6.7827 -8.5267 0.5473 0.0000 -0.0000 0.0000 -8.3740 -14.4854 -23.7217 0.4954 4.5126 12.5235 -0.0067 5.9943 -8.3634 0.0161 -0.8200 -2.2538 0.0000 -0.0000 0.0000 34.1796 2.7062 9.6455 -1.4725 -7.6679 21.7099 -1.1460 0.9256 -19.9540 -0.0017 -0.2671 0.7338 6.1124 2.5382 11.1989 2.2452 4.3166 -0.1497 -1.7618 1.9583 -6.1707 -0.9413 -2.9921 -15.3398 -0.0292 -3.9109 20.0235 -0.3235 -1.9124 8.8112 0.0000 0.0000 0.0000 -87.4771 7.4336 19.9397 11.2829 -18.7206 -1.8657 -0.0000 0.0000 -1.8527 30.3142 16.6549 9.5129 -7.1250 0.0000 -0.0000 2.4539 49.0773 0.2469 0.0000 0.0000 0.0000 85.8671 9.6667 20.3612 -19.2313 29.7050 -5.1449 0.0000 -0.0000 -3.4223 -21.8469 21.5023 -8.3600 7.1250 -0.0000 -0.0000 4.3362 -7.0364 3.7835
